<?xml version="1.0" encoding="UTF-8"?><svg id="Layer_1" xmlns="http://www.w3.org/2000/svg" xmlns:xlink="http://www.w3.org/1999/xlink" viewBox="0 0 512 512"><defs><style>.cls-1,.cls-2{fill:none;}.cls-3{fill:url(#linear-gradient);}.cls-4{fill:url(#linear-gradient-8);}.cls-5{fill:url(#linear-gradient-9);}.cls-6{fill:url(#linear-gradient-3);}.cls-7{fill:url(#linear-gradient-4);}.cls-8{fill:url(#linear-gradient-2);}.cls-9{fill:url(#linear-gradient-6);}.cls-10{fill:url(#linear-gradient-7);}.cls-11{fill:url(#linear-gradient-5);}.cls-12{fill:url(#linear-gradient-14);}.cls-13{fill:url(#linear-gradient-18);}.cls-14{fill:url(#linear-gradient-22);}.cls-15{fill:url(#linear-gradient-20);}.cls-16{fill:url(#linear-gradient-21);}.cls-17{fill:url(#linear-gradient-15);}.cls-18{fill:url(#linear-gradient-19);}.cls-19{fill:url(#linear-gradient-16);}.cls-20{fill:url(#linear-gradient-17);}.cls-21{fill:url(#linear-gradient-13);}.cls-22{fill:url(#linear-gradient-12);}.cls-23{fill:url(#linear-gradient-10);}.cls-24{fill:url(#linear-gradient-11);}.cls-2{stroke:#82bcff;stroke-linecap:round;stroke-miterlimit:10;stroke-width:.75px;}</style><linearGradient id="linear-gradient" x1="246.67" y1="380.14" x2="246.67" y2="1110.79" gradientUnits="userSpaceOnUse"><stop offset="0" stop-color="#b0d5ff"/><stop offset=".31" stop-color="#fff" stop-opacity="0"/></linearGradient><linearGradient id="linear-gradient-2" x1="236.97" y1="141.35" x2="236.97" y2="432.63" gradientUnits="userSpaceOnUse"><stop offset="0" stop-color="#b0d5ff"/><stop offset="1" stop-color="#67a8f5"/></linearGradient><linearGradient id="linear-gradient-3" x1="252.26" y1="141.37" x2="252.26" y2="432.63" gradientUnits="userSpaceOnUse"><stop offset="0" stop-color="#d9eaff"/><stop offset="1" stop-color="#82bcff"/></linearGradient><linearGradient id="linear-gradient-4" x1="229.31" y1="132.54" x2="244.63" y2="132.54" gradientUnits="userSpaceOnUse"><stop offset="0" stop-color="#b0d5ff"/><stop offset="1" stop-color="#82bcff"/></linearGradient><linearGradient id="linear-gradient-5" x1="244.63" y1="132.54" x2="259.95" y2="132.54" gradientUnits="userSpaceOnUse"><stop offset="0" stop-color="#b0d5ff"/><stop offset="1" stop-color="#82bcff"/></linearGradient><linearGradient id="linear-gradient-6" x1="169.21" y1="375.64" x2="169.21" y2="410.94" xlink:href="#linear-gradient-5"/><linearGradient id="linear-gradient-7" x1="153.92" y1="393.3" x2="153.92" y2="499.22" xlink:href="#linear-gradient-2"/><linearGradient id="linear-gradient-8" x1="184.51" y1="393.3" x2="184.51" y2="499.22" xlink:href="#linear-gradient-3"/><linearGradient id="linear-gradient-9" x1="488.2" y1="379.58" x2="488.2" y2="414.88" xlink:href="#linear-gradient-5"/><linearGradient id="linear-gradient-10" x1="472.91" y1="397.24" x2="472.91" y2="503.16" xlink:href="#linear-gradient-2"/><linearGradient id="linear-gradient-11" x1="503.51" y1="397.24" x2="503.51" y2="503.16" xlink:href="#linear-gradient-3"/><linearGradient id="linear-gradient-12" x1="298.11" y1="414.84" x2="298.11" y2="450.14" xlink:href="#linear-gradient-5"/><linearGradient id="linear-gradient-13" x1="282.82" y1="432.49" x2="282.82" y2="538.41" xlink:href="#linear-gradient-2"/><linearGradient id="linear-gradient-14" x1="313.42" y1="432.49" x2="313.42" y2="538.41" xlink:href="#linear-gradient-3"/><linearGradient id="linear-gradient-15" x1="366.95" y1="256.11" x2="366.95" y2="291.41" xlink:href="#linear-gradient-5"/><linearGradient id="linear-gradient-16" x1="351.66" y1="273.74" x2="351.66" y2="432.54" xlink:href="#linear-gradient-2"/><linearGradient id="linear-gradient-17" x1="382.26" y1="273.76" x2="382.26" y2="432.54" xlink:href="#linear-gradient-3"/><linearGradient id="linear-gradient-18" x1="55.61" y1="309.01" x2="55.61" y2="344.31" xlink:href="#linear-gradient-5"/><linearGradient id="linear-gradient-19" x1="40.32" y1="326.64" x2="40.32" y2="485.44" xlink:href="#linear-gradient-2"/><linearGradient id="linear-gradient-20" x1="70.91" y1="326.66" x2="70.91" y2="485.44" xlink:href="#linear-gradient-3"/><linearGradient id="linear-gradient-21" x1="272.99" y1="165.29" x2="302.43" y2="216.29" xlink:href="#linear-gradient-3"/><linearGradient id="linear-gradient-22" x1="133.08" y1="123.18" x2="99.98" y2="180.52" xlink:href="#linear-gradient-3"/></defs><ellipse id="_地球" class="cls-3" cx="246.67" cy="745.46" rx="430.46" ry="365.33"/><g id="Sanctum_Tower"><polygon class="cls-8" points="244.56 432.63 229.31 423.84 229.31 141.35 244.63 150.19 244.56 432.63"/><polygon class="cls-6" points="259.89 423.82 259.95 141.37 244.63 150.19 244.56 432.63 259.89 423.82"/><polygon class="cls-1" points="244.63 150.19 229.31 141.35 244.63 132.54 259.95 141.37 244.63 150.19"/><polygon class="cls-7" points="244.63 114.89 229.31 141.35 244.63 150.19 244.63 114.89"/><polygon class="cls-11" points="259.95 141.37 244.63 150.19 244.63 114.89 259.95 141.37"/></g><g id="_矮楼1"><polygon class="cls-9" points="199.79 393.3 169.2 410.94 138.63 393.3 169.2 375.64 199.79 393.3"/><polygon class="cls-10" points="169.22 499.22 169.2 410.94 138.63 393.3 138.62 481.51 169.22 499.22"/><polygon class="cls-4" points="199.83 481.51 199.79 393.3 169.2 410.94 169.22 499.22 199.83 481.51"/></g><g id="_矮楼1-2"><polygon class="cls-5" points="518.78 397.24 488.19 414.88 457.62 397.24 488.19 379.58 518.78 397.24"/><polygon class="cls-23" points="488.22 503.16 488.19 414.88 457.62 397.24 457.61 485.45 488.22 503.16"/><polygon class="cls-24" points="518.82 485.45 518.78 397.24 488.19 414.88 488.22 503.16 518.82 485.45"/></g><g id="_矮楼1-3"><polygon class="cls-22" points="328.69 432.49 298.1 450.14 267.53 432.49 298.1 414.84 328.69 432.49"/><polygon class="cls-21" points="298.13 538.41 298.1 450.14 267.53 432.49 267.52 520.71 298.13 538.41"/><polygon class="cls-12" points="328.73 520.71 328.69 432.49 298.1 450.14 298.13 538.41 328.73 520.71"/></g><g id="_高楼1"><polygon class="cls-17" points="397.53 273.76 366.94 291.41 336.37 273.76 366.94 256.11 397.53 273.76"/><polygon class="cls-19" points="366.97 432.54 366.94 291.38 336.37 273.74 336.36 414.84 366.97 432.54"/><polygon class="cls-20" points="397.57 414.84 397.53 273.76 366.94 291.41 366.97 432.54 397.57 414.84"/></g><g id="_高楼1-2"><polygon class="cls-13" points="86.19 326.66 55.6 344.31 25.03 326.66 55.6 309.01 86.19 326.66"/><polygon class="cls-18" points="55.62 485.44 55.6 344.28 25.03 326.64 25.02 467.74 55.62 485.44"/><polygon class="cls-15" points="86.23 467.74 86.19 326.66 55.6 344.31 55.62 485.44 86.23 467.74"/></g><line class="cls-2" x1="244.63" y1="39.17" x2="244.63" y2="114.89"/><path class="cls-2" d="m125.81,69.26c27.15,9.88,70.27,16.27,118.82,16.27,82.16,0,148.76-18.28,148.76-40.84S326.79,3.85,244.63,3.85,95.87,22.13,95.87,44.69c0,4.23,2.34,8.31,6.69,12.14"/><path class="cls-2" d="m102.56,56.83c3.96,3.5,9.59,6.79,16.62,9.81"/><path class="cls-2" d="m312.6,68.58c25.84-5.55,42.46-14.19,42.46-23.9,0-16.74-49.44-30.32-110.43-30.32s-110.43,13.57-110.43,30.32c0,7.11,8.92,13.65,23.86,18.82"/><path class="cls-2" d="m158.06,63.51c20.23,7,51.49,11.49,86.57,11.49,18.59,0,36.1-1.26,51.48-3.49"/><path class="cls-2" d="m483.88,183.74c14.53,2.45,31.63,3.87,49.94,3.87,52.69,0,95.4-11.73,95.4-26.19s-42.71-26.19-95.4-26.19-95.4,11.73-95.4,26.19c0,6.14,7.71,11.79,20.61,16.26"/><path class="cls-2" d="m459.03,177.68c5.58,1.93,12.13,3.64,19.45,5.07"/><path class="cls-16" d="m310.55,176.95c-8.85-13.66-24.77-19.39-35.57-12.8-9.65,5.89-11.9,19.64-5.95,32.26l-2.52,11.16,9-1.58c9.11,9.82,22.22,13.31,31.52,7.63,10.79-6.59,12.36-23.01,3.51-36.67Zm-27.59,20.95l-1.43,1.33c-.73.68-1.88.64-2.56-.09l-.97-1.04c-.68-.73-.64-1.88.09-2.56l1.43-1.33c.73-.68,1.88-.64,2.56.09l.97,1.04c.68.73.64,1.87-.09,2.56Zm18.13-5.84c-.9.84-1.99,1.37-3.26,1.61-1.28.24-3.38.17-6.31-.21-1.52-.19-2.59-.2-3.22,0-.37.11-.82.38-1.35.79-.74.58-1.8.5-2.44-.19l-1.01-1.08c-.7-.75-.64-1.94.14-2.61.91-.78,1.92-1.46,3.09-1.79,1.14-.32,2.75-.34,4.82-.05,2.07.29,3.37.41,3.88.37.81-.08,1.49-.39,2.06-.92.79-.74,1.17-1.68,1.15-2.84-.03-1.16-.55-2.28-1.55-3.35-.97-1.04-2.07-1.63-3.31-1.78-.87-.11-1.8.04-2.78.44-.77.31-1.66.06-2.15-.61l-1.54-2.13c-.33-.46-.21-1.09.28-1.4,1.64-1.06,3.52-1.49,5.63-1.28,2.48.24,4.76,1.47,6.83,3.7,2.18,2.34,3.3,4.77,3.37,7.29.07,2.52-.71,4.54-2.33,6.05Z"/><path class="cls-14" d="m149.09,169.61c-1.04,0-2.08-.11-3.1-.33-3.48,4-8.45,6.27-13.78,6.27-3.19,0-6.29-.83-9.05-2.4-3.23,2.59-7.24,4-11.41,4-5.31,0-10.23-2.24-13.7-6.19-2.2,1.34-4.7,2.04-7.32,2.04-3.57,0-6.97-1.33-9.59-3.76-2.4-2.22-3.94-5.18-4.39-8.39-4.52-2.38-7.4-7.11-7.4-12.25,0-6.99,5.22-12.84,12.04-13.73,2.34-6.83,8.84-11.52,16.13-11.52,4.12,0,8.02,1.45,11.11,4.12,2.47-1.93,5.51-2.99,8.68-2.99,3.58,0,6.93,1.31,9.53,3.71,2.32-1.02,4.78-1.54,7.34-1.54,4.35,0,8.56,1.55,11.86,4.38,3.01,2.57,5.1,6.05,5.96,9.87,6.66,1.37,11.57,7.31,11.57,14.2,0,8-6.51,14.5-14.5,14.5Z"/></svg>